<svg version="1.1" viewBox="0.0 0.0 1536.0 1536.0" fill="none" stroke="none" stroke-linecap="square" stroke-miterlimit="10" xmlns:xlink="http://www.w3.org/1999/xlink" xmlns="http://www.w3.org/2000/svg"><clipPath id="p.0"><path d="m0 0l1536.0 0l0 1536.0l-1536.0 0l0 -1536.0z" clip-rule="nonzero"/></clipPath><g clip-path="url(#p.0)"><path fill="#000000" d="m0 0l1536.0 0l0 1536.0l-1536.0 0z" fill-rule="evenodd"/><path fill="#000000" fill-opacity="0.0" d="m74.2126 133.04199l860.7559 0l0 665.7953l-860.7559 0z" fill-rule="evenodd"/><path fill="#ffffff" d="m525.39233 368.18262l-91.734406 0l0 -41.609375l-34.140625 0l0 240.0l37.34375 0l0 87.46875l-223.99998 0l0 -87.46875l37.328125 0l0 -240.0l-34.125 0l0 41.609375l-91.734375 0l0 -129.0625l401.0625 0l0 129.0625zm183.4646 293.32812q-51.203125 0 -96.8125 -8.796875q-45.59375 -8.8125 -70.125 -20.0l0 -105.609375l117.34375 0q0 16.53125 7.453125 24.0q7.46875 7.46875 27.203125 7.46875q16.53125 0 23.734375 -5.0625q7.203125 -5.0625 7.203125 -15.203125q0 -8.53125 -6.9375 -14.65625q-6.9375 -6.140625 -24.0 -12.546875l-45.859375 -16.0q-59.203125 -22.390625 -85.078125 -52.78125q-25.859375 -30.40625 -25.859375 -82.140625q0 -62.9375 41.328125 -95.734375q41.34375 -32.796875 137.875 -32.796875q46.390625 0 87.1875 9.328125q40.8125 9.328125 65.875 24.796875l0 95.46875l-106.671875 0q0 -26.671875 -33.0625 -26.671875q-16.0 0 -22.671875 4.0q-6.65625 4.0 -6.65625 14.140625q0 9.0625 7.734375 14.40625q7.734375 5.328125 25.328125 11.1875l46.40625 16.0q56.53125 19.203125 82.390625 49.875q25.875 30.65625 25.875 80.265625q0 67.734375 -45.609375 102.40625q-45.59375 34.65625 -133.59375 34.65625z" fill-rule="nonzero"/><path fill="#b7b7b7" d="m0 0l1536.0 0l0 1536.0l-1536.0 0zm66.78528 66.78528l0 1402.4294l1402.4294 0l0 -1402.4294z" fill-rule="evenodd"/><path stroke="#595959" stroke-width="1.0" stroke-linejoin="round" stroke-linecap="butt" d="m0 0l1536.0 0l0 1536.0l-1536.0 0zm66.78528 66.78528l0 1402.4294l1402.4294 0l0 -1402.4294z" fill-rule="evenodd"/><path fill="#000000" fill-opacity="0.0" d="m602.2126 798.8373l860.7559 0l0 665.7953l-860.7559 0z" fill-rule="evenodd"/><path fill="#ffffff" d="m820.85455 1327.306q-41.0625 0 -77.859375 -9.328125q-36.796875 -9.34375 -61.328125 -25.875l0 -93.859375l106.65625 0l0 5.328125q0 28.796875 27.734375 28.796875q14.40625 0 21.59375 -7.734375q7.203125 -7.734375 7.203125 -24.265625l0 -208.0l-48.0 0l0 -87.453125l224.0 0l0 87.453125l-26.65625 0l0 179.20312q0 78.40625 -45.875 117.078125q-45.859375 38.65625 -127.46875 38.65625zm385.60272 0q-51.203125 0 -96.8125 -8.796875q-45.59375 -8.8125 -70.125 -20.0l0 -105.609375l117.34375 0q0 16.53125 7.453125 24.0q7.46875 7.46875 27.203125 7.46875q16.53125 0 23.734375 -5.0625q7.203125 -5.0625 7.203125 -15.203125q0 -8.53125 -6.9375 -14.65625q-6.9375 -6.140625 -24.0 -12.546875l-45.859375 -16.0q-59.203125 -22.390625 -85.078125 -52.78125q-25.859375 -30.40625 -25.859375 -82.140625q0 -62.9375 41.328125 -95.734375q41.34375 -32.796875 137.875 -32.796875q46.390625 0 87.1875 9.328125q40.8125 9.328125 65.875 24.796875l0 95.46875l-106.671875 0q0 -26.671875 -33.0625 -26.671875q-16.0 0 -22.671875 4.0q-6.65625 4.0 -6.65625 14.140625q0 9.0625 7.734375 14.40625q7.734375 5.328125 25.328125 11.1875l46.40625 16.0q56.53125 19.203125 82.390625 49.875q25.875 30.65625 25.875 80.265625q0 67.734375 -45.609375 102.40625q-45.59375 34.65625 -133.59375 34.65625z" fill-rule="nonzero"/><path fill="#b7b7b7" d="m133.5643 798.8373l244.20474 0l224.45667 224.45667l-224.45667 224.45667l-244.20474 0l224.4567 -224.45667z" fill-rule="evenodd"/><path stroke="#595959" stroke-width="1.0" stroke-linejoin="round" stroke-linecap="butt" d="m133.5643 798.8373l244.20474 0l224.45667 224.45667l-224.45667 224.45667l-244.20474 0l224.4567 -224.45667z" fill-rule="evenodd"/></g></svg>